<svg width="26" height="26" viewBox="0 0 26 26" fill="none" xmlns="http://www.w3.org/2000/svg">
<path d="M13.0001 8.33366C10.4217 8.33366 8.33341 10.422 8.33341 13.0003C8.33341 15.5787 10.4217 17.667 13.0001 17.667C15.5784 17.667 17.6667 15.5787 17.6667 13.0003C17.6667 10.422 15.5784 8.33366 13.0001 8.33366ZM23.4301 11.8337C23.1658 9.4678 22.1049 7.26212 20.4216 5.5788C18.7383 3.89548 16.5326 2.83459 14.1667 2.57033V1.33366C14.1667 0.691992 13.6417 0.166992 13.0001 0.166992C12.3584 0.166992 11.8334 0.691992 11.8334 1.33366V2.57033C9.46756 2.83459 7.26188 3.89548 5.57856 5.5788C3.89524 7.26212 2.83435 9.4678 2.57008 11.8337H1.33341C0.691748 11.8337 0.166748 12.3587 0.166748 13.0003C0.166748 13.642 0.691748 14.167 1.33341 14.167H2.57008C2.83435 16.5329 3.89524 18.7385 5.57856 20.4219C7.26188 22.1052 9.46756 23.1661 11.8334 23.4303V24.667C11.8334 25.3087 12.3584 25.8337 13.0001 25.8337C13.6417 25.8337 14.1667 25.3087 14.1667 24.667V23.4303C16.5326 23.1661 18.7383 22.1052 20.4216 20.4219C22.1049 18.7385 23.1658 16.5329 23.4301 14.167H24.6667C25.3084 14.167 25.8334 13.642 25.8334 13.0003C25.8334 12.3587 25.3084 11.8337 24.6667 11.8337H23.4301ZM13.0001 21.167C8.48508 21.167 4.83341 17.5153 4.83341 13.0003C4.83341 8.48533 8.48508 4.83366 13.0001 4.83366C17.5151 4.83366 21.1667 8.48533 21.1667 13.0003C21.1667 17.5153 17.5151 21.167 13.0001 21.167Z" fill="white"/>
</svg>
